<?xml version="1.0" encoding="UTF-8"?>
<svg id="Layer_1" data-name="Layer 1" xmlns="http://www.w3.org/2000/svg" viewBox="0 0 2993 1400">
  <defs>
    <style>
      .cls-1 {
        fill: #225b9e;
      }

      .cls-2 {
        fill: #1a4d8c;
      }

      .cls-3 {
        fill: #3d83be;
      }

      .cls-4 {
        fill: #3b84bf;
      }

      .cls-5 {
        fill: #afa282;
      }

      .cls-6 {
        fill: #265c98;
      }

      .cls-7 {
        fill: #aaa07d;
      }
    </style>
  </defs>
  <path class="cls-3" d="M2832.32,665.07c-30.43,53.05-74.82,95.9-129.88,122.21-99.14,47.38-210.72,37.11-301.87-22.86-15.97-10.51-30.34-21.71-43.89-35.04-1.27-1.25-2.76-1.38-3.18-3.26-.53-2.39,1.01-2.45,2.56-4.21,19.76-22.44,35.69-47.45,48.28-74.67l17.12-45.93,5.15,8c7.63,11.85,16.86,21.32,27.35,30.84,38.27,34.73,84.28,49.47,136.06,44.16,35.38-3.63,73.96-22.18,96.89-49.28h47.18s112.82.14,112.82.14c-3.84,10.72-8.69,19.59-14.59,29.88Z"/>
  <path class="cls-3" d="M2448.54,589.89c8.72,8.82,18.19,14.13,27.8,20.82,21.17,14.74,44.64,22.92,70.18,26.05,17.48,2.14,33.96,2.11,51.56-.37,30.79-4.33,55.58-16.67,79.78-35.43l12.68-11.61c-16.77,27.64-42.56,50.24-73.27,62.43-14.93,5.92-29.6,7.86-45.2,8.84l-11.15-.66c-45.59-2.71-90.41-29.93-112.39-70.08Z"/>
  <path class="cls-6" d="M1975.02,335.81l-27.09-.04-24.46-.19-33.38-.2-9.05-.14c-9.66-.14-18.73,1.4-28.37.23l-35.96-.73-.14,78.44-.09,363.52-.08,16.66-.45,23.08c-3.83-.99-7.32-.22-11.56-.22l-145.3.11v-182.18s.35-45.59.35-45.59h-222.81s-.14,227.74-.14,227.74l-143.33.18c-4.64,0-8.33,1.3-12.88-.31l-.28-279.13.18-190.98.18-136.93c-.64-1.93-.97-3.42-.17-5.51l156.28-.1.04,228.44,23.51-.28,199.19.09-.04-228.22,447.87.41c43.34.04,84.92,12.68,123.11,31.81,29.89,14.97,55.62,34.48,78.5,58.55l1.8,1.61c.88.79-.75,1.44-1.28,2.1l-14.66,18.41-14.1,21.01c-16.5,27.54-29.72,56.47-37.24,87.7l-.35,2.12c.77,1.56-1.41,1.74-1.04.17-5.93-14.08-15.55-25.43-25.27-36.91l-13.11-13c-23.71-23.5-67.87-41.47-102.38-41.78l-11.02-.1-24.33-.21-48.51-.21-8.12.38-34.01.19Z"/>
  <path class="cls-5" d="M2008.93,815.46l-153.31.24.38-23.93.16-282.59c.01-21.02,4.6-40.18,15.03-58,16.06-25.07,41.77-41.53,71.76-43.76l44.93.18.09,152.39-.36,125.37,109.26-.84,23.43-1.95c77.56-14.58,134.33-76.88,141.98-155.41l1.53-41.6c2.75-40.24,14.76-78.74,33.17-114.4l15.3-26c23.4-36.37,53.99-66.81,90.23-90.74,99.78-65.9,227.77-68.6,329.09-5.19l37.15,28.13c37.39,33.53,66.18,74.83,83.52,122.76l-119.19-.1-30.61.29c-7.8-9.44-15.01-19.28-24.81-26.96-14.17-11.1-28.41-21.01-45.29-27.86-29.25-11.86-61-14.75-92.46-9.7-32.65,5.25-62.62,20.25-87.14,41.81-37.43,32.9-58.1,79.42-56.67,129.4.68,23.84-1.57,46.09-6.82,69.21-10.77,47.44-29.82,86.12-60.04,124.05-21.6,27.11-46.68,50.44-76.22,68.69-32.55,20.1-67.34,34.03-104.97,40.83-15.19,2.74-29.16,5.42-44.59,5.45l-94.51.23Z"/>
  <path class="cls-4" d="M359.57,568.99l229.69.09-.11-150.94-.95-6.53c8.08,4.99,17.03,10.01,25.77,13.49l29.92,14.09,39.7,15.67-.02,296.9c0,6.38,1.32,11.37-.94,17.85-15.29-9.39-33-14.34-51.59-13.06-14.9-.24-28.02,4.09-41.81,11.74l-.29-115.93-333.71.1c-7.41,0-12.29,1.3-16.56,7.49-6.63,9.58-11.1,20.38-14.85,32.06-15.8,49.19-22.28,102.13-22.01,154.59l-12.94-35.52c-27.81-83.68-52.74-169.09-68.63-256.05-5.39-29.49-8.72-58.17-11.48-87.75-.27-2.91-.44-5.37-.54-8.33-.79-23.02-1.35-45.13.6-68.13,5.03-59.4,26.07-115.79,73.11-153.99,11.22-9.11,23.29-16.22,36.52-22.38,32.81-15.27,75.57-21.18,111.63-17.97l22.05,1.96c42.07,5.32,82.44,15.86,122.4,30.18,36.8,13.2,71.69,28.54,106.14,46.61l42.06,22.05,62.76,33.26c26.98,14.3,54.15,26.61,82.34,38.67,47.96,20.51,96.23,37.08,146.7,50.32,28.82,7.55,57.17,12.48,86.43,17.68.86-.6,1.61-.17,1.55.44-.02.27.21.97-.43,1.19l-16.3,5.67c-24.67,5.95-49.19,8.63-74.51,8.76l-37.37.19c-32.11-1.08-63.58-3.78-94.97-10.67-44.55-9.77-86.79-23.84-128.16-42.47l-44.33-19.96-83.75-40.05c-24.43-11.68-48.66-21.19-74.17-30.03-24.66-8.55-49.08-13.75-75.01-16.1l-17.45-.52c-11.73-.35-22.21.05-33.69,2.34-25.41,5.05-48.7,15.64-66.5,34.92-27.52,29.82-33.73,68.16-35.1,108.08-.94,44.1,4.18,86.76,11.98,130.21l126.84-.22Z"/>
  <path class="cls-1" d="M711.08,830.39l11.31,16.28c10.3,17.88,18.23,36.2,23.57,56.28l23.1,86.77,16.76,66.14,11.48,37.68c4.06,13.32,16.6,39.63,27.74,39.63,6.64,0,12.52-4.58,16.72-9.4,10.47-12.02,18.66-24.99,25.88-39.08l11.21-21.89,9.54-19.53c22.9-50.06,42-100.9,60.06-152.98l26.41-80.54,8.32-26.74,11.29-38.9c15.95-54.96,40.93-162.97,44-217.15l4.08-71.92-1.81-39.21c-.96-20.73-6.68-40.4-15.26-59.19-7.82-17.14-19.84-30.54-35.36-40.75-5.61-3.7-10.77-6.67-17.06-9.16-39.94-15.8-90.03-12.02-131.93-2.92-19.74,4.28-38.4,9.33-56.9,17.24l-21.01,8.99-33.33-17-59.43-29.46,22.42-10.9c54.85-29.19,112.67-51.17,173.55-64.95,26.47-5.99,52.49-9.27,79.54-10.34,19.62-.77,38.21.94,57.4,4.45,51.53,9.43,98.37,37.85,123.27,84.48,4.68,8.77,9.3,17,12.46,26.47l8.18,24.6c5.06,19.63,7.67,39.04,8.86,59.35l.06,46.1-1.08,19.58c-2.01,36.31-7.54,71.35-14.83,107.1l-23.87,102.38-43.83,149.77-17.81,53.48c-22.49,67.52-47.94,133.63-79.06,197.55-15.64,32.13-33.38,62.66-55.13,90.72-21.89,28.24-53.02,56.7-89.19,60.71-23.3,2.58-45.17-7.61-61.09-24.48-14.35-15.21-24.09-33.04-30.95-52.95l-25.23-89.69-20.69-84.3c-7.25-29.55-14.33-58.19-24.06-86.91-7.47-22.05-20.4-50.58-44.41-53.71-17.26-2.25-31.49,3.37-46,12.86-19.82,12.97-36.56,29.04-52.35,46.51l-5.08,4.29c-.22,1.36-1.92,1.03-1.16-.23,5.92-22.02,16.3-41.47,29.57-59.52,10.54-14.35,22.72-26.11,38.39-34.68,29.75-16.27,64.86-14.8,93.48,2.73,11.57,7.09,20.71,15.59,29.27,26.32Z"/>
  <path class="cls-7" d="M536.05,940.83l-24.08,1.57-51.89,3.19-38.19,2-119.78,3.22-39.2-1.77c-16.23-.73-31.83-3.74-47.2-8.77-15.12-4.95-34.28-16.8-34.95-31.57-.74-16.43,21.07-29.78,36.95-35.99,36.61-14.31,77.82-17.64,117.27-15.84,22.91,1.04,45.22,1.99,67.14,6.78-39.28-2.68-77.51-1.71-115.67,6.54-16.62,3.59-42.5,13.33-45.04,29.1-1.13,7.05,3.65,13.14,10.01,16.43,24.47,12.66,71.71,15.23,101.72,17.12l35.95,2.26,108.87,3.97,37.55,1.13c.42.01.57.4.53.62Z"/>
  <path class="cls-7" d="M295.46,1173.05l13.43,9.13c21.1,11.91,43.78,17.98,68.08,19.47,14.25.87,27.75.94,41.83-1.8,27.6-3.62,57-13.54,79-29.53-7.76,22.84-23.31,40-42.97,52.6-17.98,11.53-38.31,17.5-59.77,18.7-35.05,1.96-67.65-13.38-88.04-41.62-5.06-8.37-10.36-15.95-11.57-26.94Z"/>
  <path class="cls-7" d="M504.04,1011.82c-4.61,2.27-9.17,1.29-14.05,1.64l-58.04,4.12c-48.62,3.46-142.55,6.29-186.25-3.33-12.27-2.7-31.02-8.99-33.64-18.92-4.98-18.86,32.58-31.16,52.07-32.98-3.42,5.39-5.98,9.91-5.9,15.7s3.95,10.49,9.17,12.65c11.88,4.92,23.96,8.12,36.85,10.15,25.07,3.94,49.31,5.92,74.81,6.76l101.15,3.32,23.83.88Z"/>
  <path class="cls-7" d="M473.84,1079.15l-43.8,4.42-57.03,4.14-50.38,1.62c-23.2-.91-60.71-3.03-76.01-17.61-6.43-6.12-6.61-14.68-.45-20.59,9.75-9.35,21.4-16.57,35-19.13-4.62,6.47-7.1,14.23-3.16,21.02,9.23,15.91,88.9,21.36,113.94,22.04l68.32,1.87,25.45.46c-3.86,2.68-7.97,1.35-11.87,1.75Z"/>
  <path class="cls-7" d="M481.11,1139.86l-43.45,8.46c-25.77,5.02-51.07,7.63-77.28,8.93l-36.91.08c-16.26.03-43.09-6.82-45.84-23.62-1.81-11.08,16.56-26.91,29.97-30.79-3.59,6.24-5.23,14.71-.23,20.65,10.8,12.82,45.31,15.73,64.63,17.06,27.63,1.9,54.45,1.99,82.07,1.31,9.03-.22,16.91-1.96,27.02-2.07Z"/>
  <path class="cls-2" d="M1932.76,1011.3c-5.2,3.61-9.34,7.93-15.7,10.33-13.8,5.21-30.73.95-39.86-11.38-13.52-18.27-14.74-43.16-4.58-62.87,5.84-11.34,15.71-18.5,26.61-20.29,13.15-2.16,24.9,2.35,33.75,11.99,1.48-7.19-.64-13.25-.6-19.5l.13-24.85,30.11.12.7,7.96.15,110.52.35,7.6-30.18.53c-.12-3.14.94-5.43-.89-10.15ZM1931.75,988.5c2.81-9.01,3.34-18.55.49-27.32-2.14-6.57-9.11-11.98-16.28-12.03-4.99-.04-11.42,3.09-14,7.15-5.97,9.37-5.66,20.78-3.18,31.2,1.83,7.68,8.44,13,15.76,13.33s14.74-4.4,17.2-12.32Z"/>
  <path class="cls-2" d="M1805.33,1022.21l-22.21-.2-.18-53.49c-.02-5.42-1.1-11.19-5.07-14.94-5.1-4.82-12.42-4.94-18.13-2.14s-9.2,8.73-9.21,16.06l-.08,53.76-29.92.15.05-126.7,29.89.22.32,45.55c8.31-9.84,17.29-14.93,29.17-14.68,21.53.45,32.95,17.1,32.9,38.68l-.15,57.42c-2.73-.55-4.68.33-7.39.3Z"/>
  <path class="cls-2" d="M1342.61,969.9c.02-5.75-.71-11.83-4.5-15.54-5.09-4.99-12.87-5.47-18.5-2.23s-9.5,8.82-9.42,16.24l.28,24.07-.78,28.7-25.35.68c-1.45.04-2.54,1.01-4.09-.14-.97-.72-.4-1.62-.39-3.43l.39-91.73c.05-10.96.53-20.97-.03-31.92l29.34.38.3,47.82c6.81-10.36,16.48-16.46,27.87-17.02,18.77-.93,34.63,14.23,34.67,30.69l.17,64.71-16.52.48c-4.59.13-8.86,1.64-13.65.09l.18-51.84Z"/>
  <path class="cls-2" d="M2119.45,965.86l-.23,15.78v39.95c-3.47,1.27-7.76,1.09-12.25.34l-6.89.29c-3.81.16-7.12-1.31-11.49-.76l-.11-93.25,29.2-.12c.09,4.94-.8,8.83.49,13.87,6.33-9.02,15.06-15.07,25.81-15.91,18.43-1.43,34.36,10.31,36.26,28.88l.79,45.44-.35,20.91-11.8.59-17.93-.52-.08-52.73c0-5.61-1.35-10.63-5.39-15.04-3.83-4.19-11.12-4.74-16.74-2.3-5.06,2.19-9.19,7.42-9.29,14.57Z"/>
  <path class="cls-2" d="M2263.57,998.94c-1.22-19.46,11.49-28.37,29.6-31.08l24.46-3.66c2.61-.39,4.69-2.13,5.24-3.72.83-2.42.76-5.06-.76-7.36-5.68-8.63-18.82-9.23-25.75-1.26-.98,1.13-.75,4.72-2.99,4.76l-14.38.27c-4.26.08-7.98.43-11.79-1.21,2.37-6.65,4.3-13.33,8.89-18.05,12.9-13.27,37.68-14.4,54.48-8.77,13.67,4.58,21.5,16.06,21.57,30.34l.31,56.25c.01,1.92.72,3.4,1.63,5.21l-16.86,1.05c-4.48.28-9.06,1.65-12.75-.77-.27-3.11.64-6.11-1.36-9.32-12.09,12.95-29.77,16.05-45.36,8.76-8.05-3.76-13.59-12.01-14.18-21.44ZM2307.08,1005.24c8.25-1.7,14.77-7.49,15.24-15.67.21-3.65,1.73-6.88-.07-10.36l-20.67,4.45c-6.93,1.49-10.62,7.58-8.91,14.2,1.47,5.7,7.66,8.78,14.42,7.39Z"/>
  <path class="cls-2" d="M2796.9,992.54l27.16.45c-5.7,22.92-31.1,34.25-52.27,30.71-8.68-1.45-17.2-3.28-23.84-9-10.42-8.97-15.21-19.82-16.7-33.4-2.38-21.59,7.88-44.29,28.9-52.29,14.31-5.44,30.56-4.42,43.42,2.66,12.28,6.76,18.73,18.17,21.61,31.67l.7,17.71-65.64.58c2.02,12.93,6.81,20.86,18.74,21.34,7.54.3,14.52-2.82,17.94-10.42ZM2797.37,964.6c-.3-6.14-3.43-11.73-7.53-14.74-4.8-3.53-10.48-5.04-16.18-2.83-7.16,2.78-11.79,9.71-12.8,17.72l36.51-.15Z"/>
  <path class="cls-2" d="M2035,1001.97c4.5-1.65,6.99-5.77,9.3-9.02l27.59-.4c-7.03,24-30.61,34.57-53.92,30.97-22.81-3.52-38.88-21.9-39.16-45.03-.09-7.42.02-14.79,2.49-21.75,7.55-21.33,27.43-33.23,49.7-31.01,21.12,2.11,37.6,16.28,40.99,37.61l.68,17.99-32.59.65-32.19.16c.59,6.43,2.54,13.17,7.65,16.54,5.61,3.7,12.84,5.73,19.47,3.3ZM2044.9,964.76c-.88-11.88-8.76-18.31-18.5-18.35-9.8-.04-17.31,7.78-17.79,18.29l36.29.06Z"/>
  <path class="cls-2" d="M1506.65,1019.9c-8.05-4-12.25-11.32-12.99-19.87-.75-8.72,1.25-18.17,8.21-23.37,6.79-5.08,13.99-7.82,22.16-8.97l22.77-3.22c2.94-.42,5.32-2.12,6.04-3.96,1.18-3.04.58-6.16-1.25-8.72-3.84-5.37-9.94-6-16.37-5.26-5.24.61-9.14,6.27-12.52,10.4l-25.52-.29c2.51-29.14,38.05-35.31,62.49-27.83,13.51,4.13,21.8,15.59,21.91,29.71l.44,55.85c.02,2.19,1.74,4.43.35,6.59l-21.27.69c-1.55.05-4.93,2.04-6.17-.35-1.3-2.49-.27-6.61-3.02-9.69-11.77,13.01-30.28,15.73-45.25,8.29ZM1525.59,1003.4c6.25,4.05,13.9,2.69,19.3-1.24,5.06-3.68,7.77-9.57,7.66-16.34-.03-1.68,1.31-5.18-.88-6.36l-20.18,4.19c-4.62.96-7.97,4.33-9.16,8.01-1.31,4.08-.88,9.06,3.25,11.74Z"/>
  <path class="cls-2" d="M1425.91,1000.51c7.4,5.05,23.38,4.15,27.57-7.79l28.38.24c-6.72,16.89-21.06,28.55-38.76,30.55-19.26,2.18-36.33-2.99-46.98-19.24-16.46-25.12-8.04-62.63,19.73-74.79,14.77-6.46,32.33-5.27,45.62,3.26s19.65,20.97,20.28,35.65l.45,10.43c.11,2.48-2.53,3.94-5.23,3.75-14.82-1.05-29.16-.72-44.02-.6-5.37.04-10.45-1.45-16.06-.51-.6,7.41,2.82,14.82,9,19.04ZM1453.75,964.45c-.46-11.1-9.63-18.42-18.76-17.87-9.64.58-16.56,7.93-17.26,17.83,12.13.7,23.35,1.04,36.02.04Z"/>
  <path class="cls-2" d="M1702.8,999.45l.79,20.93c-5.81,2.68-12.03,2.12-18.63,2.53-15.48.95-26.72-4.87-29-20.29-2.46-16.59.39-34.98-.93-52.49-4.38.29-8.21.69-12.74-.44l.2-20.58,11.9-.55.2-23.7h29.86s.44,23.88.44,23.88l18.4.27.23,20.36c-3.91,1.71-8.42.62-12.74.42l-6.14-.28.09,35.04c0,3.81-.35,10.69,2.89,13,3.87,2.69,9.74,1.39,15.17,1.92Z"/>
  <path class="cls-2" d="M2252.39,999.54l.79,13.74c.15,2.57,1.15,4.97.02,7.36-8.38,2.2-16.82,2.59-25.42,1.97-11.41-.82-19.99-7.96-21.15-19.75l-.93-43.85c-.06-2.92-1.21-5.47-.46-8.86-4.54.46-7.57.6-11.67-.63l-.02-20.74,12.34-.62c1.06-7.99.48-15.85-.28-24.08l28.55-.48c2.56,3.51,1.27,7.63,1.52,11.72.27,4.47.54,8.46-.76,12.87l17.79.76.61,20.39-17.7.04.04,42.95c0,7.09,7.61,7.12,16.73,7.2Z"/>
  <rect class="cls-2" x="2321.73" y="942.39" width="128.6" height="31.63" transform="translate(1418.25 3340.36) rotate(-89.77)"/>
  <rect class="cls-2" x="1552.32" y="943.31" width="127.41" height="29.86" transform="translate(656.97 2573.77) rotate(-89.97)"/>
  <path class="cls-2" d="M2695.47,1021.74c-10,1.41-19.48.85-30.09-.57v-93.46s29.2.41,29.2.41c-.24,5.28-1.03,9.5.74,14.72,6.37-11.49,16.5-18.32,29.32-16.65l-.32,27.76c-7.34-1.43-15.3-.37-21.58,4.21-4.92,3.59-6.11,9.41-7.1,15.42l-.17,48.16Z"/>
  <path class="cls-2" d="M2561.5,981.67c4.68-7.12,11.61-10.29,18.97-11.66l35.01-6.51c3.46-2.57,1.71-11.88-2.06-14.25-5.93-3.73-12.42-3.31-18.75-1.29-3.8,1.21-6.03,4.77-6.51,9.16l-26.61-.2c1.45-13.49,9.66-24.06,22.8-28.23,26.04-8.25,59.78-.48,61.37,25.81l.9,14.99.13,51.85-27.75-.16-1.41-10.28c-13.08,14.33-35.95,17.95-51.61,5.5-10.19-8.1-11.42-24.15-4.47-34.72ZM2615.68,994.07c1.77-4.48,1.34-9.57,1.11-14.7l-23.89,5.72c-4.31,1.03-6.39,4.43-6.61,8.81-.19,3.7.45,8.03,4.4,9.91,9.36,4.47,21.08.17,24.99-9.74Z"/>
  <path class="cls-2" d="M2508.6,999.68c5.84-2.35,7.59-8.43,9.67-13.09,8.59-1.45,18.5-.16,27.1.21-1.41,20.89-17.75,35.37-38.22,36.99-17.75,1.41-36.47-4.33-46.14-19.32-11.04-17.11-10.38-47.83,4.23-63.82,17.87-19.56,53.98-21.15,72.62-.2,5.43,6.1,8.24,13.67,7.93,21.58l-28.03-.18c-1.44-6.7-5.55-11.48-10.99-13.2-6.44-2.02-13.55.47-17.7,6.1-8.04,10.89-6.44,34.92.28,41.37,4.77,4.58,12.87,6.11,19.24,3.54Z"/>
  <path class="cls-1" d="M1301.04,1145.51l4.4-21.15-16.82-33.54h7.83l8.06,15.97c1.77,3.48,3.48,7.21,5.15,11.19,1.84-3.38,4.35-7.08,7.54-11.08l12.83-16.08h8.73l-26.11,34.1-4.29,20.59h-7.31Z"/>
  <path class="cls-1" d="M1330.18,1130.47c0-7.73,2.28-14.14,6.83-19.21,3.75-4.18,8.68-6.27,14.77-6.27,4.78,0,8.62,1.49,11.55,4.48,2.92,2.98,4.38,7.01,4.38,12.09,0,4.55-.92,8.79-2.76,12.7s-4.46,6.92-7.85,9.01c-3.39,2.09-6.97,3.13-10.73,3.13-3.08,0-5.89-.66-8.41-1.98-2.52-1.32-4.45-3.18-5.78-5.6-1.33-2.41-2-5.2-2-8.36ZM1336.93,1129.8c0,3.73.9,6.56,2.69,8.49,1.79,1.93,4.07,2.89,6.83,2.89,1.44,0,2.87-.29,4.29-.88,1.42-.58,2.74-1.47,3.95-2.67,1.22-1.19,2.26-2.56,3.11-4.08s1.55-3.18,2.07-4.94c.77-2.46,1.16-4.82,1.16-7.09,0-3.58-.9-6.36-2.7-8.34-1.8-1.98-4.07-2.97-6.81-2.97-2.11,0-4.04.5-5.78,1.51-1.74,1.01-3.31,2.48-4.72,4.42-1.41,1.94-2.44,4.2-3.1,6.77-.66,2.57-.99,4.87-.99,6.88Z"/>
  <path class="cls-1" d="M1398.52,1138.34c-4.75,5.37-9.61,8.06-14.59,8.06-3.06,0-5.53-.88-7.41-2.63-1.88-1.75-2.82-3.9-2.82-6.44,0-1.67.42-4.53,1.27-8.58l4.77-22.87h6.75l-5.3,25.33c-.45,2.11-.67,3.76-.67,4.92,0,1.49.45,2.66,1.36,3.49.91.83,2.24,1.25,4.01,1.25,1.89,0,3.74-.46,5.54-1.38,1.8-.92,3.36-2.16,4.66-3.73,1.31-1.57,2.37-3.42,3.19-5.56.55-1.37,1.18-3.77,1.9-7.2l3.58-17.12h6.75l-8.28,39.62h-6.23l1.49-7.16Z"/>
  <path class="cls-1" d="M1413.96,1145.51l8.28-39.62h5.97l-1.68,8.09c2.04-3.06,4.03-5.32,5.99-6.79,1.95-1.47,3.95-2.2,5.99-2.2,1.34,0,3,.49,4.96,1.46l-2.76,6.27c-1.17-.84-2.45-1.27-3.84-1.27-2.36,0-4.79,1.32-7.27,3.95-2.49,2.64-4.44,7.37-5.86,14.21l-3.36,15.89h-6.42Z"/>
  <path class="cls-1" d="M1460.63,1145.51l11.42-54.69h6.75l-4.36,21c2.51-2.44,4.85-4.18,7.01-5.24,2.16-1.06,4.39-1.58,6.68-1.58,3.28,0,5.83.86,7.65,2.59,1.81,1.73,2.72,4.01,2.72,6.85,0,1.39-.4,3.95-1.19,7.68l-4.89,23.39h-6.75l5.04-23.99c.72-3.48,1.08-5.67,1.08-6.57,0-1.29-.45-2.35-1.34-3.17-.9-.82-2.19-1.23-3.88-1.23-2.44,0-4.76.64-6.98,1.92-2.21,1.28-3.95,3.03-5.2,5.26-1.26,2.23-2.41,5.81-3.45,10.76l-3.54,17.01h-6.75Z"/>
  <path class="cls-1" d="M1532.22,1132.04l6.57.67c-.95,3.26-3.12,6.36-6.51,9.29-3.39,2.93-7.44,4.4-12.14,4.4-2.94,0-5.63-.68-8.08-2.03-2.45-1.36-4.31-3.33-5.6-5.91-1.28-2.59-1.92-5.53-1.92-8.84,0-4.33,1-8.52,3-12.59,2-4.07,4.59-7.09,7.78-9.06,3.18-1.98,6.63-2.97,10.33-2.97,4.73,0,8.5,1.47,11.32,4.4,2.82,2.93,4.23,6.94,4.23,12.01,0,1.94-.17,3.93-.52,5.97h-29.17c-.1.77-.15,1.47-.15,2.09,0,3.71.85,6.54,2.55,8.49s3.79,2.93,6.25,2.93c2.31,0,4.59-.76,6.83-2.28,2.24-1.52,3.98-3.71,5.22-6.57ZM1512.6,1122.23h22.23c.03-.7.04-1.19.04-1.49,0-3.38-.85-5.97-2.54-7.78s-3.87-2.71-6.53-2.71c-2.88,0-5.52,1-7.89,2.98-2.38,1.99-4.15,4.99-5.32,8.99Z"/>
  <path class="cls-1" d="M1572.32,1140.58c-2.34,2.01-4.59,3.49-6.75,4.42-2.16.93-4.48,1.4-6.94,1.4-3.66,0-6.6-1.08-8.84-3.23s-3.36-4.91-3.36-8.26c0-2.21.5-4.17,1.51-5.88s2.34-3.07,4.01-4.1c1.67-1.03,3.71-1.77,6.12-2.22,1.52-.3,4.4-.53,8.64-.71,4.24-.17,7.28-.62,9.12-1.34.52-1.84.78-3.37.78-4.59,0-1.57-.57-2.8-1.72-3.69-1.57-1.24-3.85-1.87-6.86-1.87-2.84,0-5.15.63-6.96,1.88-1.8,1.26-3.11,3.04-3.94,5.35l-6.83-.6c1.39-3.93,3.6-6.94,6.62-9.03s6.83-3.13,11.43-3.13c4.9,0,8.78,1.17,11.64,3.51,2.19,1.74,3.28,4,3.28,6.79,0,2.11-.31,4.56-.93,7.35l-2.2,9.85c-.7,3.13-1.04,5.68-1.04,7.65,0,1.24.27,3.04.82,5.37h-6.83c-.37-1.29-.63-2.93-.78-4.92ZM1574.82,1125.44c-.95.37-1.96.66-3.04.86-1.08.2-2.89.41-5.43.63-3.93.35-6.7.79-8.32,1.33-1.62.54-2.83,1.39-3.66,2.55-.82,1.17-1.23,2.46-1.23,3.88,0,1.89.65,3.45,1.96,4.66,1.31,1.22,3.17,1.83,5.58,1.83,2.24,0,4.39-.59,6.45-1.77,2.06-1.18,3.69-2.83,4.89-4.94,1.19-2.11,2.13-5.12,2.8-9.03Z"/>
  <path class="cls-1" d="M1587.58,1145.51l11.42-54.69h6.75l-11.42,54.69h-6.75Z"/>
  <path class="cls-1" d="M1620.85,1140.02l-1.12,5.52c-1.62.42-3.18.63-4.7.63-2.69,0-4.83-.66-6.42-1.98-1.19-.99-1.79-2.35-1.79-4.07,0-.87.32-2.87.97-6.01l4.81-23.02h-5.33l1.08-5.22h5.33l2.05-9.74,7.72-4.66-3.02,14.4h6.64l-1.12,5.22h-6.6l-4.59,21.9c-.57,2.79-.86,4.45-.86,5,0,.8.23,1.41.69,1.83.46.42,1.21.63,2.26.63,1.49,0,2.82-.15,3.99-.45Z"/>
  <path class="cls-1" d="M1626.3,1145.51l11.42-54.69h6.75l-4.36,21c2.51-2.44,4.85-4.18,7.01-5.24,2.16-1.06,4.39-1.58,6.68-1.58,3.28,0,5.83.86,7.65,2.59,1.81,1.73,2.72,4.01,2.72,6.85,0,1.39-.4,3.95-1.19,7.68l-4.89,23.39h-6.75l5.04-23.99c.72-3.48,1.08-5.67,1.08-6.57,0-1.29-.45-2.35-1.34-3.17-.9-.82-2.19-1.23-3.88-1.23-2.44,0-4.76.64-6.98,1.92-2.21,1.28-3.95,3.03-5.2,5.26-1.26,2.23-2.41,5.81-3.45,10.76l-3.54,17.01h-6.75Z"/>
  <path class="cls-1" d="M1666.25,1160.8l.41-6.34c1.39.4,2.75.6,4.07.6s2.47-.31,3.32-.93c1.09-.82,2.29-2.36,3.58-4.63l2.16-3.88-6.6-39.73h6.64l2.98,20.03c.6,3.95,1.11,7.91,1.53,11.86l17.72-31.9h7.05l-25.26,44.88c-2.44,4.38-4.6,7.27-6.49,8.69-1.89,1.42-4.07,2.13-6.53,2.13-1.57,0-3.1-.26-4.59-.78Z"/>
  <path class="cls-1" d="M1754.93,1140.58c-2.34,2.01-4.59,3.49-6.75,4.42-2.16.93-4.48,1.4-6.94,1.4-3.66,0-6.6-1.08-8.84-3.23s-3.36-4.91-3.36-8.26c0-2.21.5-4.17,1.51-5.88s2.34-3.07,4.01-4.1c1.67-1.03,3.71-1.77,6.12-2.22,1.52-.3,4.4-.53,8.64-.71,4.24-.17,7.28-.62,9.12-1.34.52-1.84.78-3.37.78-4.59,0-1.57-.57-2.8-1.72-3.69-1.57-1.24-3.85-1.87-6.86-1.87-2.84,0-5.15.63-6.96,1.88-1.8,1.26-3.11,3.04-3.94,5.35l-6.83-.6c1.39-3.93,3.6-6.94,6.62-9.03s6.83-3.13,11.43-3.13c4.9,0,8.78,1.17,11.64,3.51,2.19,1.74,3.28,4,3.28,6.79,0,2.11-.31,4.56-.93,7.35l-2.2,9.85c-.7,3.13-1.04,5.68-1.04,7.65,0,1.24.27,3.04.82,5.37h-6.83c-.37-1.29-.63-2.93-.78-4.92ZM1757.43,1125.44c-.95.37-1.96.66-3.04.86-1.08.2-2.89.41-5.43.63-3.93.35-6.7.79-8.32,1.33-1.62.54-2.83,1.39-3.66,2.55-.82,1.17-1.23,2.46-1.23,3.88,0,1.89.65,3.45,1.96,4.66,1.31,1.22,3.17,1.83,5.58,1.83,2.24,0,4.39-.59,6.45-1.77,2.06-1.18,3.69-2.83,4.89-4.94,1.19-2.11,2.13-5.12,2.8-9.03Z"/>
  <path class="cls-1" d="M1770.71,1145.51l8.28-39.62h6.12l-1.46,6.9c2.66-2.71,5.15-4.69,7.46-5.93,2.31-1.24,4.67-1.87,7.09-1.87,3.21,0,5.73.87,7.55,2.61,1.83,1.74,2.74,4.07,2.74,6.98,0,1.47-.32,3.78-.97,6.94l-5.04,23.99h-6.75l5.26-25.11c.52-2.44.78-4.24.78-5.41,0-1.32-.45-2.39-1.36-3.21-.91-.82-2.22-1.23-3.94-1.23-3.46,0-6.54,1.24-9.23,3.73s-4.68,6.75-5.95,12.79l-3.84,18.43h-6.75Z"/>
  <path class="cls-1" d="M1839.91,1139.76c-3.86,4.43-7.88,6.64-12.09,6.64-3.76,0-6.88-1.39-9.38-4.16-2.5-2.77-3.75-6.8-3.75-12.07,0-4.82.99-9.23,2.96-13.22,1.98-3.99,4.45-6.98,7.42-8.97,2.97-1.99,5.95-2.98,8.93-2.98,4.92,0,8.64,2.38,11.15,7.12l4.48-21.3h6.71l-11.42,54.69h-6.23l1.19-5.75ZM1821.4,1128.91c0,2.76.27,4.94.82,6.53.55,1.59,1.48,2.92,2.8,3.97,1.32,1.06,2.9,1.59,4.74,1.59,3.06,0,5.83-1.59,8.32-4.78,3.33-4.23,5-9.45,5-15.67,0-3.13-.82-5.58-2.46-7.35-1.64-1.77-3.71-2.65-6.19-2.65-1.62,0-3.09.36-4.42,1.08-1.33.72-2.65,1.95-3.96,3.67-1.31,1.73-2.41,3.92-3.3,6.58s-1.34,5-1.34,7.01Z"/>
  <path class="cls-1" d="M1876.91,1145.51l11.42-54.69h6.75l-4.07,19.55c2.14-1.96,4.08-3.35,5.82-4.16,1.74-.81,3.56-1.21,5.45-1.21,3.71,0,6.8,1.38,9.27,4.14s3.71,6.78,3.71,12.05c0,3.51-.5,6.71-1.49,9.62-1,2.91-2.23,5.35-3.69,7.33-1.47,1.98-2.98,3.56-4.55,4.74-1.57,1.18-3.17,2.06-4.81,2.65s-3.22.88-4.74.88c-2.61,0-4.91-.69-6.9-2.07-1.99-1.38-3.54-3.49-4.66-6.32l-1.57,7.5h-5.93ZM1886.91,1129.24l-.04,1.27c0,3.38.81,5.96,2.42,7.72,1.62,1.77,3.63,2.65,6.04,2.65s4.53-.83,6.51-2.48c1.98-1.65,3.6-4.23,4.87-7.74,1.27-3.51,1.9-6.74,1.9-9.7,0-3.33-.8-5.92-2.41-7.76-1.6-1.84-3.59-2.76-5.95-2.76s-4.68.94-6.71,2.82c-2.04,1.88-3.74,4.77-5.11,8.67-1.02,2.91-1.53,5.35-1.53,7.31Z"/>
  <path class="cls-1" d="M1948.5,1132.04l6.57.67c-.95,3.26-3.12,6.36-6.51,9.29-3.39,2.93-7.44,4.4-12.14,4.4-2.94,0-5.63-.68-8.08-2.03-2.45-1.36-4.31-3.33-5.6-5.91-1.28-2.59-1.92-5.53-1.92-8.84,0-4.33,1-8.52,3-12.59,2-4.07,4.59-7.09,7.78-9.06,3.18-1.98,6.63-2.97,10.33-2.97,4.73,0,8.5,1.47,11.32,4.4,2.82,2.93,4.23,6.94,4.23,12.01,0,1.94-.17,3.93-.52,5.97h-29.17c-.1.77-.15,1.47-.15,2.09,0,3.71.85,6.54,2.55,8.49s3.79,2.93,6.25,2.93c2.31,0,4.59-.76,6.83-2.28,2.24-1.52,3.98-3.71,5.22-6.57ZM1928.88,1122.23h22.23c.03-.7.04-1.19.04-1.49,0-3.38-.85-5.97-2.54-7.78s-3.87-2.71-6.53-2.71c-2.88,0-5.52,1-7.89,2.98-2.38,1.99-4.15,4.99-5.32,8.99Z"/>
  <path class="cls-1" d="M1988.6,1140.58c-2.34,2.01-4.59,3.49-6.75,4.42-2.16.93-4.48,1.4-6.94,1.4-3.66,0-6.6-1.08-8.84-3.23s-3.36-4.91-3.36-8.26c0-2.21.5-4.17,1.51-5.88s2.34-3.07,4.01-4.1c1.67-1.03,3.71-1.77,6.12-2.22,1.52-.3,4.4-.53,8.64-.71,4.24-.17,7.28-.62,9.12-1.34.52-1.84.78-3.37.78-4.59,0-1.57-.57-2.8-1.72-3.69-1.57-1.24-3.85-1.87-6.86-1.87-2.84,0-5.15.63-6.96,1.88-1.8,1.26-3.11,3.04-3.94,5.35l-6.83-.6c1.39-3.93,3.6-6.94,6.62-9.03s6.83-3.13,11.43-3.13c4.9,0,8.78,1.17,11.64,3.51,2.19,1.74,3.28,4,3.28,6.79,0,2.11-.31,4.56-.93,7.35l-2.2,9.85c-.7,3.13-1.04,5.68-1.04,7.65,0,1.24.27,3.04.82,5.37h-6.83c-.37-1.29-.63-2.93-.78-4.92ZM1991.1,1125.44c-.95.37-1.96.66-3.04.86-1.08.2-2.89.41-5.43.63-3.93.35-6.7.79-8.32,1.33-1.62.54-2.83,1.39-3.66,2.55-.82,1.17-1.23,2.46-1.23,3.88,0,1.89.65,3.45,1.96,4.66,1.31,1.22,3.17,1.83,5.58,1.83,2.24,0,4.39-.59,6.45-1.77,2.06-1.18,3.69-2.83,4.89-4.94,1.19-2.11,2.13-5.12,2.8-9.03Z"/>
  <path class="cls-1" d="M2031.43,1138.34c-4.75,5.37-9.61,8.06-14.59,8.06-3.06,0-5.53-.88-7.4-2.63-1.88-1.75-2.82-3.9-2.82-6.44,0-1.67.42-4.53,1.27-8.58l4.78-22.87h6.75l-5.3,25.33c-.45,2.11-.67,3.76-.67,4.92,0,1.49.45,2.66,1.36,3.49.91.83,2.24,1.25,4.01,1.25,1.89,0,3.74-.46,5.54-1.38,1.8-.92,3.36-2.16,4.66-3.73,1.31-1.57,2.37-3.42,3.19-5.56.55-1.37,1.18-3.77,1.9-7.2l3.58-17.12h6.75l-8.28,39.62h-6.23l1.49-7.16Z"/>
  <path class="cls-1" d="M2062.65,1140.02l-1.12,5.52c-1.62.42-3.18.63-4.7.63-2.69,0-4.83-.66-6.42-1.98-1.19-.99-1.79-2.35-1.79-4.07,0-.87.32-2.87.97-6.01l4.81-23.02h-5.33l1.08-5.22h5.33l2.05-9.74,7.72-4.66-3.02,14.4h6.64l-1.12,5.22h-6.6l-4.59,21.9c-.57,2.79-.86,4.45-.86,5,0,.8.23,1.41.69,1.83.46.42,1.21.63,2.26.63,1.49,0,2.82-.15,3.99-.45Z"/>
  <path class="cls-1" d="M2067.84,1145.51l8.28-39.62h6.75l-8.28,39.62h-6.75ZM2077.69,1098.46l1.6-7.65h6.71l-1.6,7.65h-6.71Z"/>
  <path class="cls-1" d="M2086,1145.51l7.2-34.39h-6.04l1.08-5.22h6.04l1.16-5.63c.6-2.81,1.21-4.84,1.85-6.08.63-1.24,1.67-2.27,3.1-3.08,1.43-.81,3.38-1.21,5.84-1.21,1.72,0,4.2.36,7.46,1.08l-1.23,5.89c-2.29-.6-4.2-.89-5.75-.89-1.32,0-2.32.33-3,.99-.68.66-1.27,2.22-1.77,4.68l-.9,4.25h7.54l-1.08,5.22h-7.54l-7.2,34.39h-6.75Z"/>
  <path class="cls-1" d="M2133.34,1138.34c-4.75,5.37-9.61,8.06-14.59,8.06-3.06,0-5.53-.88-7.4-2.63-1.88-1.75-2.82-3.9-2.82-6.44,0-1.67.42-4.53,1.27-8.58l4.78-22.87h6.75l-5.3,25.33c-.45,2.11-.67,3.76-.67,4.92,0,1.49.45,2.66,1.36,3.49.91.83,2.24,1.25,4.01,1.25,1.89,0,3.74-.46,5.54-1.38,1.8-.92,3.36-2.16,4.66-3.73,1.31-1.57,2.37-3.42,3.19-5.56.55-1.37,1.18-3.77,1.9-7.2l3.58-17.12h6.75l-8.28,39.62h-6.23l1.49-7.16Z"/>
  <path class="cls-1" d="M2148.27,1145.51l11.42-54.69h6.75l-11.42,54.69h-6.75Z"/>
  <path class="cls-1" d="M2187.62,1131.96l6.75-.41c0,1.94.3,3.59.9,4.96.6,1.37,1.7,2.49,3.3,3.36,1.6.87,3.47,1.31,5.61,1.31,2.98,0,5.22-.6,6.71-1.79,1.49-1.19,2.24-2.6,2.24-4.21,0-1.17-.45-2.28-1.34-3.32-.92-1.04-3.17-2.33-6.73-3.86s-5.85-2.6-6.84-3.23c-1.67-1.02-2.92-2.22-3.77-3.6-.85-1.38-1.27-2.97-1.27-4.76,0-3.13,1.24-5.82,3.73-8.06,2.49-2.24,5.97-3.36,10.45-3.36,4.97,0,8.76,1.15,11.36,3.45,2.6,2.3,3.95,5.33,4.05,9.08l-6.6.45c-.1-2.39-.95-4.28-2.54-5.67-1.59-1.39-3.84-2.09-6.75-2.09-2.34,0-4.15.54-5.45,1.6-1.29,1.07-1.94,2.23-1.94,3.47s.56,2.34,1.68,3.28c.75.65,2.67,1.64,5.78,2.98,5.17,2.24,8.43,4,9.77,5.3,2.14,2.06,3.21,4.58,3.21,7.54,0,1.97-.6,3.89-1.81,5.78-1.21,1.89-3.05,3.4-5.52,4.53-2.48,1.13-5.39,1.7-8.75,1.7-4.58,0-8.47-1.13-11.68-3.39-3.21-2.26-4.72-5.94-4.55-11.04Z"/>
  <path class="cls-1" d="M2225.15,1145.51l8.28-39.62h6.75l-1.38,6.53c2.51-2.81,4.76-4.75,6.73-5.82,1.98-1.07,4.12-1.6,6.43-1.6,2.46,0,4.52.65,6.17,1.96,1.65,1.31,2.74,3.13,3.26,5.47,2.01-2.49,4.13-4.35,6.36-5.58,2.23-1.23,4.57-1.85,7.03-1.85,3.31,0,5.79.78,7.44,2.35,1.65,1.57,2.48,3.77,2.48,6.6,0,1.22-.29,3.23-.86,6.04l-5.33,25.52h-6.75l5.45-26.19c.47-2.14.71-3.67.71-4.59,0-1.29-.41-2.31-1.23-3.06-.82-.75-1.98-1.12-3.47-1.12-2.01,0-4.07.61-6.16,1.83s-3.71,2.82-4.87,4.79c-1.16,1.98-2.17,5.02-3.04,9.12l-4.03,19.21h-6.75l5.6-26.75c.4-1.82.6-3.11.6-3.88,0-1.29-.4-2.34-1.21-3.13-.81-.8-1.86-1.19-3.15-1.19-1.92,0-3.92.61-6.03,1.83s-3.81,2.92-5.13,5.09c-1.32,2.18-2.4,5.28-3.25,9.31l-3.92,18.73h-6.75Z"/>
  <path class="cls-1" d="M2288.57,1145.51l8.28-39.62h6.75l-8.28,39.62h-6.75ZM2298.42,1098.46l1.6-7.65h6.71l-1.6,7.65h-6.71Z"/>
  <path class="cls-1" d="M2305.28,1145.51l11.42-54.69h6.75l-11.42,54.69h-6.75Z"/>
  <path class="cls-1" d="M2351.87,1132.04l6.57.67c-.95,3.26-3.12,6.36-6.51,9.29-3.39,2.93-7.44,4.4-12.14,4.4-2.94,0-5.63-.68-8.08-2.03-2.45-1.36-4.31-3.33-5.6-5.91-1.28-2.59-1.92-5.53-1.92-8.84,0-4.33,1-8.52,3-12.59,2-4.07,4.59-7.09,7.78-9.06,3.18-1.98,6.63-2.97,10.33-2.97,4.73,0,8.5,1.47,11.32,4.4,2.82,2.93,4.23,6.94,4.23,12.01,0,1.94-.17,3.93-.52,5.97h-29.17c-.1.77-.15,1.47-.15,2.09,0,3.71.85,6.54,2.55,8.49s3.79,2.93,6.25,2.93c2.31,0,4.59-.76,6.83-2.28,2.24-1.52,3.98-3.71,5.22-6.57ZM2332.25,1122.23h22.23c.03-.7.04-1.19.04-1.49,0-3.38-.85-5.97-2.54-7.78s-3.87-2.71-6.53-2.71c-2.88,0-5.52,1-7.89,2.98-2.38,1.99-4.15,4.99-5.32,8.99Z"/>
  <path class="cls-1" d="M2386.23,1145.51l8.28-39.62h6.75l-8.28,39.62h-6.75ZM2396.08,1098.46l1.6-7.65h6.71l-1.6,7.65h-6.71Z"/>
  <path class="cls-1" d="M2404.1,1131.96l6.75-.41c0,1.94.3,3.59.9,4.96.6,1.37,1.7,2.49,3.3,3.36,1.6.87,3.47,1.31,5.61,1.31,2.98,0,5.22-.6,6.71-1.79,1.49-1.19,2.24-2.6,2.24-4.21,0-1.17-.45-2.28-1.34-3.32-.92-1.04-3.17-2.33-6.73-3.86s-5.85-2.6-6.84-3.23c-1.67-1.02-2.92-2.22-3.77-3.6-.85-1.38-1.27-2.97-1.27-4.76,0-3.13,1.24-5.82,3.73-8.06,2.49-2.24,5.97-3.36,10.45-3.36,4.97,0,8.76,1.15,11.36,3.45,2.6,2.3,3.95,5.33,4.05,9.08l-6.6.45c-.1-2.39-.95-4.28-2.54-5.67-1.59-1.39-3.84-2.09-6.75-2.09-2.34,0-4.15.54-5.45,1.6-1.29,1.07-1.94,2.23-1.94,3.47s.56,2.34,1.68,3.28c.75.65,2.67,1.64,5.78,2.98,5.17,2.24,8.43,4,9.77,5.3,2.14,2.06,3.21,4.58,3.21,7.54,0,1.97-.6,3.89-1.81,5.78-1.21,1.89-3.05,3.4-5.52,4.53-2.48,1.13-5.39,1.7-8.75,1.7-4.58,0-8.47-1.13-11.68-3.39-3.21-2.26-4.72-5.94-4.55-11.04Z"/>
  <path class="cls-1" d="M2464.09,1130.47c0-7.73,2.28-14.14,6.83-19.21,3.75-4.18,8.68-6.27,14.77-6.27,4.77,0,8.62,1.49,11.55,4.48,2.92,2.98,4.38,7.01,4.38,12.09,0,4.55-.92,8.79-2.76,12.7s-4.46,6.92-7.85,9.01-6.97,3.13-10.72,3.13c-3.08,0-5.89-.66-8.41-1.98-2.52-1.32-4.45-3.18-5.78-5.6-1.33-2.41-2-5.2-2-8.36ZM2470.84,1129.8c0,3.73.9,6.56,2.69,8.49,1.79,1.93,4.07,2.89,6.83,2.89,1.44,0,2.87-.29,4.29-.88,1.42-.58,2.74-1.47,3.95-2.67,1.22-1.19,2.26-2.56,3.12-4.08s1.55-3.18,2.07-4.94c.77-2.46,1.16-4.82,1.16-7.09,0-3.58-.9-6.36-2.7-8.34-1.8-1.98-4.07-2.97-6.81-2.97-2.11,0-4.04.5-5.78,1.51s-3.31,2.48-4.72,4.42c-1.41,1.94-2.44,4.2-3.1,6.77s-.99,4.87-.99,6.88Z"/>
  <path class="cls-1" d="M2532.43,1138.34c-4.75,5.37-9.61,8.06-14.59,8.06-3.06,0-5.53-.88-7.4-2.63-1.88-1.75-2.82-3.9-2.82-6.44,0-1.67.42-4.53,1.27-8.58l4.78-22.87h6.75l-5.3,25.33c-.45,2.11-.67,3.76-.67,4.92,0,1.49.45,2.66,1.36,3.49.91.83,2.24,1.25,4.01,1.25,1.89,0,3.74-.46,5.54-1.38,1.8-.92,3.36-2.16,4.66-3.73,1.31-1.57,2.37-3.42,3.19-5.56.55-1.37,1.18-3.77,1.9-7.2l3.58-17.12h6.75l-8.28,39.62h-6.23l1.49-7.16Z"/>
  <path class="cls-1" d="M2547.87,1145.51l8.28-39.62h5.97l-1.68,8.09c2.04-3.06,4.03-5.32,5.99-6.79,1.95-1.47,3.95-2.2,5.99-2.2,1.34,0,3,.49,4.96,1.46l-2.76,6.27c-1.17-.84-2.45-1.27-3.84-1.27-2.36,0-4.79,1.32-7.27,3.95s-4.44,7.37-5.86,14.21l-3.36,15.89h-6.42Z"/>
  <path class="cls-1" d="M2591.22,1160.69l11.45-54.8h6.23l-1.16,5.52c2.31-2.41,4.38-4.08,6.21-5.02,1.83-.93,3.76-1.4,5.8-1.4,3.78,0,6.91,1.37,9.4,4.12,2.49,2.75,3.73,6.68,3.73,11.81,0,4.13-.68,7.89-2.05,11.29-1.37,3.39-3.05,6.12-5.04,8.19-1.99,2.06-4,3.58-6.04,4.55-2.04.97-4.13,1.46-6.27,1.46-4.75,0-8.43-2.41-11.04-7.24l-4.48,21.52h-6.75ZM2604.57,1129.32c0,2.96.21,5.01.63,6.16.62,1.62,1.64,2.92,3.06,3.92,1.42,1,3.06,1.49,4.92,1.49,3.88,0,7.01-2.18,9.4-6.55,2.39-4.36,3.58-8.82,3.58-13.37,0-3.36-.8-5.95-2.41-7.78-1.6-1.83-3.6-2.74-5.99-2.74-1.72,0-3.31.45-4.77,1.36-1.47.91-2.83,2.26-4.08,4.07-1.26,1.8-2.29,4.01-3.12,6.62s-1.23,4.89-1.23,6.83Z"/>
  <path class="cls-1" d="M2637.03,1145.51l8.28-39.62h5.97l-1.68,8.09c2.04-3.06,4.03-5.32,5.99-6.79,1.95-1.47,3.95-2.2,5.99-2.2,1.34,0,3,.49,4.96,1.46l-2.76,6.27c-1.17-.84-2.45-1.27-3.84-1.27-2.36,0-4.79,1.32-7.27,3.95s-4.44,7.37-5.86,14.21l-3.36,15.89h-6.42Z"/>
  <path class="cls-1" d="M2662.21,1145.51l8.28-39.62h6.75l-8.28,39.62h-6.75ZM2672.06,1098.46l1.6-7.65h6.71l-1.6,7.65h-6.71Z"/>
  <path class="cls-1" d="M2680.64,1130.47c0-7.73,2.28-14.14,6.83-19.21,3.75-4.18,8.68-6.27,14.77-6.27,4.77,0,8.62,1.49,11.55,4.48,2.92,2.98,4.38,7.01,4.38,12.09,0,4.55-.92,8.79-2.76,12.7s-4.46,6.92-7.85,9.01-6.97,3.13-10.72,3.13c-3.08,0-5.89-.66-8.41-1.98-2.52-1.32-4.45-3.18-5.78-5.6-1.33-2.41-2-5.2-2-8.36ZM2687.39,1129.8c0,3.73.9,6.56,2.69,8.49,1.79,1.93,4.07,2.89,6.83,2.89,1.44,0,2.87-.29,4.29-.88,1.42-.58,2.74-1.47,3.95-2.67,1.22-1.19,2.26-2.56,3.12-4.08s1.55-3.18,2.07-4.94c.77-2.46,1.16-4.82,1.16-7.09,0-3.58-.9-6.36-2.7-8.34-1.8-1.98-4.07-2.97-6.81-2.97-2.11,0-4.04.5-5.78,1.51s-3.31,2.48-4.72,4.42c-1.41,1.94-2.44,4.2-3.1,6.77s-.99,4.87-.99,6.88Z"/>
  <path class="cls-1" d="M2721.94,1145.51l8.28-39.62h5.97l-1.68,8.09c2.04-3.06,4.03-5.32,5.99-6.79,1.95-1.47,3.95-2.2,5.99-2.2,1.34,0,3,.49,4.96,1.46l-2.76,6.27c-1.17-.84-2.45-1.27-3.84-1.27-2.36,0-4.79,1.32-7.27,3.95s-4.44,7.37-5.86,14.21l-3.36,15.89h-6.42Z"/>
  <path class="cls-1" d="M2747.12,1145.51l8.28-39.62h6.75l-8.28,39.62h-6.75ZM2756.96,1098.46l1.6-7.65h6.71l-1.6,7.65h-6.71Z"/>
  <path class="cls-1" d="M2780.13,1140.02l-1.12,5.52c-1.62.42-3.18.63-4.7.63-2.69,0-4.83-.66-6.42-1.98-1.19-.99-1.79-2.35-1.79-4.07,0-.87.32-2.87.97-6.01l4.81-23.02h-5.33l1.08-5.22h5.33l2.05-9.74,7.72-4.66-3.02,14.4h6.64l-1.12,5.22h-6.6l-4.59,21.9c-.57,2.79-.86,4.45-.86,5,0,.8.23,1.41.69,1.83.46.42,1.21.63,2.26.63,1.49,0,2.82-.15,3.99-.45Z"/>
  <path class="cls-1" d="M2783.04,1160.8l.41-6.34c1.39.4,2.75.6,4.07.6s2.47-.31,3.32-.93c1.09-.82,2.29-2.36,3.58-4.63l2.16-3.88-6.6-39.73h6.64l2.98,20.03c.6,3.95,1.11,7.91,1.53,11.86l17.72-31.9h7.05l-25.26,44.88c-2.44,4.38-4.6,7.27-6.49,8.69-1.89,1.42-4.07,2.13-6.53,2.13-1.57,0-3.1-.26-4.59-.78Z"/>
</svg>